<?xml version="1.0" encoding="utf-8"?>
<!-- Generator: Adobe Illustrator 16.0.3, SVG Export Plug-In . SVG Version: 6.00 Build 0)  -->
<!DOCTYPE svg PUBLIC "-//W3C//DTD SVG 1.1//EN" "http://www.w3.org/Graphics/SVG/1.1/DTD/svg11.dtd">
<svg version="1.1" xmlns="http://www.w3.org/2000/svg" xmlns:xlink="http://www.w3.org/1999/xlink" x="0px" y="0px" width="24px"
     height="24px" viewBox="0 0 24 24" enable-background="new 0 0 24 24" xml:space="preserve">
<g id="Outline_Icons_1_">
    <g id="Outline_Icons">
    </g>
    <g id="New_icons_1_">
        <g>
            <path d="M23.5,2H20V0.5C20,0.224,19.776,0,19.5,0h-3C16.224,0,16,0.224,16,0.5V2H8V0.5C8,0.224,7.776,0,7.5,0h-3
                C4.224,0,4,0.224,4,0.5V2H0.5C0.224,2,0,2.224,0,2.5v21C0,23.776,0.224,24,0.5,24h23c0.276,0,0.5-0.224,0.5-0.5v-21
                C24,2.224,23.776,2,23.5,2z M17,1h2v3h-2V1z M5,1h2v3H5V1z M4,3v1.5C4,4.776,4.224,5,4.5,5h3C7.776,5,8,4.776,8,4.5V3h8v1.5
                C16,4.776,16.224,5,16.5,5h3C19.776,5,20,4.776,20,4.5V3h3v4H1V3H4z M1,23V8h22v15H1z"/>
            <path d="M17.5,15H13v-4.5c0-0.276-0.224-0.5-0.5-0.5S12,10.224,12,10.5V15H7.5C7.224,15,7,15.224,7,15.5S7.224,16,7.5,16H12v4.5
                c0,0.276,0.224,0.5,0.5,0.5s0.5-0.224,0.5-0.5V16h4.5c0.276,0,0.5-0.224,0.5-0.5S17.776,15,17.5,15z"/>
        </g>
    </g>
</g>
<g id="Invisible_Shape">
    <rect fill="none" width="24" height="24"/>
</g>
</svg>
