
<svg xmlns="http://www.w3.org/2000/svg" xmlns:xlink="http://www.w3.org/1999/xlink" version="1.1" x="0px" y="0px" viewBox="0 0 100 100" style="enable-background:new 0 0 100 100;" xml:space="preserve"><path d="M75.5,23.5c-7.1-7.1-16.5-11-26.5-11s-19.4,3.9-26.5,11c-14.6,14.6-14.6,38.4,0,53C29.6,83.6,39,87.6,49,87.6  c7.6,0,15-2.3,21.4-6.7l0.2-0.2l13.9,6.1c0.4,0.2,0.8,0.1,1.1-0.2c0.3-0.3,0.4-0.7,0.2-1.1l-6.1-13.9l0.2-0.2  C90.2,56.5,88.4,36.3,75.5,23.5z M23.2,75.8v0.5V75.8L23.2,75.8L23.2,75.8l0-0.5h0V75.8z M77.6,71.9L83,83.9l-12.1-5.3  c-0.3-0.1-0.7-0.1-1,0.1c-6.3,4.6-13.6,6.8-20.9,6.8c-9.1,0-18.2-3.5-25.1-10.5c-13.8-13.8-13.8-36.4,0-50.2  c6.7-6.7,15.6-10.4,25.1-10.4s18.4,3.7,25.1,10.4c12.4,12.4,14,31.8,3.6,46C77.5,71.2,77.5,71.5,77.6,71.9z"></path></svg>