<?xml version="1.0" encoding="utf-8"?>
<!-- Generator: Adobe Illustrator 16.0.3, SVG Export Plug-In . SVG Version: 6.00 Build 0)  -->
<!DOCTYPE svg PUBLIC "-//W3C//DTD SVG 1.1//EN" "http://www.w3.org/Graphics/SVG/1.1/DTD/svg11.dtd">
<svg version="1.1" xmlns="http://www.w3.org/2000/svg" xmlns:xlink="http://www.w3.org/1999/xlink" x="0px" y="0px" width="24px"
     height="24px" viewBox="0 0 24 24" enable-background="new 0 0 24 24" xml:space="preserve">
<g id="Outline_Icons_1_">
    <g id="Outline_Icons">
        <g>
            <path d="M16.659,8.135l-7.146,6.67l-2.159-2.158c-0.195-0.195-0.512-0.195-0.707,0s-0.195,0.512,0,0.707l2.5,2.5
                c0.19,0.19,0.497,0.196,0.695,0.012l7.5-7c0.202-0.188,0.212-0.505,0.024-0.707C17.177,7.957,16.861,7.946,16.659,8.135z"/>
            <path d="M12,0C5.383,0,0,5.383,0,12s5.383,12,12,12s12-5.383,12-12S18.617,0,12,0z M12,23C5.935,23,1,18.066,1,12
                C1,5.935,5.935,1,12,1s11,4.935,11,11C23,18.066,18.065,23,12,23z"/>
        </g>
    </g>
</g>
<g id="Invisible_Shape">
    <rect fill="none" width="24" height="24"/>
</g>
</svg>
