<svg xmlns="http://www.w3.org/2000/svg" viewBox="0 0 100 100"><path fill="#000" fill-rule="evenodd" d="M80.148 73.011c-19.9752 6.683-40.2072 6.53-60.2122-.4444V67.932c3.534-3.3318 5.533-7.8974 5.533-12.705V41.456c0-6.8706 2.9172-13.465 8.006-18.0898 5.153-4.684 11.8164-6.8953 18.845-6.229C64.6693 18.307 74.3485 29.5015 74.3485 42.616v12.611c0 4.9556 2.0977 9.615 5.7996 12.9517v4.8322zM50.6566 90.064c-5.1284 0-9.4472-3.3416-11.012-7.9467 3.6872.4393 7.3743.7354 11.0613.7354 3.6575 0 7.31-.2962 10.9625-.7207-1.5696 4.5952-5.8835 7.932-11.0118 7.932zm0-80.1284c1.8558 0 3.4304 1.1106 4.1707 2.685-.686-.1183-1.3376-.3355-2.0385-.3997-2.0483-.1924-4.072-.1726-6.0513.0347.8095-1.3623 2.231-2.32 3.919-2.32zm33.4896 55.163c-3.0897-2.4334-4.8617-6.0267-4.8617-9.8718V42.616c0-12.9023-7.9862-24.1412-19.1066-28.5045C59.9357 9.0523 55.78 5 50.6565 5c-4.8717 0-8.8648 3.6772-9.4423 8.4008-4.0474 1.2438-7.8085 3.3564-11.0612 6.313-6.1106 5.5577-9.62 13.4846-9.62 21.7423v13.771c0 3.7217-1.693 7.2508-4.6396 9.6842-.5676.469-.8934 1.1697-.8934 1.9052v7.4876c0 1.0366.6466 1.9596 1.614 2.315 5.8934 2.1668 11.8065 3.7364 17.7295 4.773C35.77 89.1164 42.527 95 50.6565 95c8.1194 0 14.8716-5.8588 16.313-13.5686 5.5034-.9576 10.997-2.3988 16.4708-4.3337.9822-.3504 1.6436-1.2833 1.6436-2.3297v-7.7295c0-.7552-.3456-1.471-.938-1.9398z"/></svg>
