<svg id="Layer_2" data-name="Layer 2" xmlns="http://www.w3.org/2000/svg" viewBox="0 0 52.56 67.5"><defs><style>.cls-1{fill-rule:evenodd;}.cls-2{fill:#ff4800;}</style></defs><title>notification_alert</title><path class="cls-1" d="M51.86,45.07a9.39,9.39,0,0,1-3.64-7.4V28.21A23,23,0,0,0,33.88,6.83,7.14,7.14,0,0,0,19.66,6.3,21.82,21.82,0,0,0,11.36,11,22.1,22.1,0,0,0,4.15,27.34V37.67A9.43,9.43,0,0,1,.67,44.93,1.85,1.85,0,0,0,0,46.36V52a1.85,1.85,0,0,0,1.21,1.74,76.75,76.75,0,0,0,13.3,3.58,12.44,12.44,0,0,0,24.47,0,76.55,76.55,0,0,0,12.35-3.25,1.86,1.86,0,0,0,1.23-1.75v-5.8A1.85,1.85,0,0,0,51.86,45.07ZM26.74,3.7a3.46,3.46,0,0,1,3.13,2c-0.52-.09-1-0.25-1.53-0.3a22.88,22.88,0,0,0-4.53,0A3.43,3.43,0,0,1,26.74,3.7Zm0,60.09a8.73,8.73,0,0,1-8.26-6,70.5,70.5,0,0,0,8.3.55A70.83,70.83,0,0,0,35,57.85,8.74,8.74,0,0,1,26.74,63.8ZM48.86,51A68.29,68.29,0,0,1,3.7,50.68V47.2a13.08,13.08,0,0,0,4.15-9.53V27.34a18.38,18.38,0,0,1,6-13.57A18.18,18.18,0,0,1,28,9.1C37.25,10,44.51,18.38,44.51,28.21v9.46a13,13,0,0,0,4.35,9.71V51Z"/><circle class="cls-2" cx="42.13" cy="11.75" r="10.43"/></svg>