
<svg xmlns="http://www.w3.org/2000/svg" width="24" height="24" viewBox="0 0 24 24"><path d="M6.5 19h10c.276 0 .5-.224.5-.5v-3c0-.772-.582-1.543-1.325-1.755l-2.175-.622v-.765c.904-.683 1.5-1.81 1.5-3.088 0-2.08-1.57-3.77-3.5-3.77S8 7.19 8 9.27c0 1.28.596 2.406 1.5 3.09v.764l-2.177.622C6.58 13.958 6 14.73 6 15.5v3c0 .276.224.5.5.5zm5-12.5c1.118 0 2.055.822 2.374 1.946-.157.05-.36.075-.584.042-.224-.033-.63-.148-.85-.554-.074-.14-.21-.235-.367-.257-.157-.023-.314.03-.426.14-.73.73-1.82.79-2.492.528C9.5 7.273 10.415 6.5 11.5 6.5zM9.007 9.352c.886.267 2.018.157 2.913-.465.32.312.743.52 1.224.59.118.018.237.026.354.026.168 0 .33-.023.487-.057-.083 1.446-1.16 2.597-2.484 2.597-1.354 0-2.453-1.202-2.493-2.69zM7 15.5c0-.325.285-.704.598-.793l2.54-.726c.214-.06.362-.256.362-.48v-.633c.32.103.65.175 1 .175s.68-.072 1-.175v.633c0 .224.148.42.363.48l2.538.727c.315.09.6.468.6.793V18H7v-2.5z"/><path d="M21.5 1.5H21v-1c0-.276-.224-.5-.5-.5h-19C.673 0 0 .673 0 1.5v21c0 .827.673 1.5 1.5 1.5h19c.276 0 .5-.224.5-.5v-1h.5c1.378 0 2.5-1.122 2.5-2.5V4c0-1.378-1.122-2.5-2.5-2.5zM1 22.5v-21c0-.276.224-.5.5-.5H3v22H1.5c-.276 0-.5-.224-.5-.5zm19 .5H4V1h16v22zm3-11.5h-2v-4h2v4zm0 1v4h-2v-4h2zm-1.5-10c.827 0 1.5.673 1.5 1.5v2.5h-2v-4h.5zM23 20c0 .827-.673 1.5-1.5 1.5H21v-4h2V20z"/><g><path fill="none" d="M0 0h24v24H0z"/></g></svg>