<?xml version="1.0" encoding="utf-8"?>
<!-- Generator: Adobe Illustrator 16.0.3, SVG Export Plug-In . SVG Version: 6.00 Build 0)  -->
<!DOCTYPE svg PUBLIC "-//W3C//DTD SVG 1.1//EN" "http://www.w3.org/Graphics/SVG/1.1/DTD/svg11.dtd">
<svg version="1.1" xmlns="http://www.w3.org/2000/svg" xmlns:xlink="http://www.w3.org/1999/xlink" x="0px" y="0px" width="24px"
     height="24px" viewBox="0 0 24 24" enable-background="new 0 0 24 24" xml:space="preserve">
<g id="Outline_Icons_1_">
    <g id="Outline_Icons">
        <g>
            <path d="M7.5,24h9c0.007,0,0.015,0,0.02,0c0.276,0,0.5-0.224,0.5-0.5c0-2.511-2.073-6.5-5.02-6.5c-2.9,0-5,3.883-5,6.5
                C7,23.776,7.224,24,7.5,24z M12,18c2.044,0,3.732,2.853,3.971,5H8.029C8.268,20.853,9.956,18,12,18z"/>
            <path d="M12,16c1.93,0,3.5-1.57,3.5-3.5S13.93,9,12,9s-3.5,1.57-3.5,3.5S10.07,16,12,16z M12,10c1.379,0,2.5,1.122,2.5,2.5
                S13.379,15,12,15s-2.5-1.122-2.5-2.5S10.621,10,12,10z"/>
            <path d="M17.656,17.656c3.119-3.119,3.119-8.194,0-11.314c-3.119-3.118-8.193-3.118-11.312,0c-3.119,3.12-3.119,8.195,0,11.314
                c0.195,0.195,0.512,0.195,0.707,0s0.195-0.512,0-0.707c-2.729-2.729-2.729-7.171,0-9.9c2.728-2.728,7.167-2.729,9.898,0
                c2.729,2.729,2.729,7.171,0,9.9c-0.195,0.195-0.195,0.512,0,0.707S17.461,17.852,17.656,17.656z"/>
            <path d="M3.515,3.514c-4.688,4.689-4.691,12.28,0,16.971c0.195,0.195,0.512,0.195,0.707,0s0.195-0.512,0-0.707
                c-4.298-4.296-4.301-11.256,0-15.557c4.288-4.287,11.267-4.287,15.557,0c4.297,4.297,4.302,11.257,0,15.557
                c-0.195,0.195-0.195,0.512,0,0.707s0.512,0.195,0.707,0c4.689-4.688,4.69-12.279,0-16.971C15.806-1.164,8.194-1.164,3.515,3.514z
                "/>
        </g>
    </g>
    <g id="New_icons_1_">
    </g>
</g>
<g id="Invisible_Shape">
    <rect fill="none" width="24" height="24"/>
</g>
</svg>
